<svg width="11" height="5" viewBox="0 0 11 5" fill="none" xmlns="http://www.w3.org/2000/svg">
<path d="M5.49432 7.91297e-05C7.18399 7.91297e-05 8.88152 7.91297e-05 10.5712 7.91297e-05C10.7284 7.91297e-05 10.8856 -0.00706232 10.972 0.114342C11.0506 0.228605 10.9484 0.307161 10.8541 0.385717C9.16445 1.87828 7.47477 3.37798 5.77724 4.87055C5.58863 5.04194 5.41573 5.04194 5.21926 4.87769C3.52173 3.37798 1.81634 1.87114 0.118807 0.371434C0.0323583 0.285737 -0.0462311 0.207181 0.0323583 0.107201C0.118807 7.91308e-05 0.252409 7.91297e-05 0.39387 7.91297e-05C2.09926 7.91297e-05 3.79679 7.91297e-05 5.49432 7.91297e-05Z" fill="#999999"/>
</svg>
