<svg width="14" height="14" viewBox="0 0 14 14" fill="none" xmlns="http://www.w3.org/2000/svg">
<path d="M9.17 12H7.13C7.06 12 7 12.02 6.95 12.07C6.9 12.12 6.88 12.18 6.88 12.25V13.75C6.88 13.82 6.9 13.88 6.95 13.93C7 13.98 7.06 14 7.13 14H9.17C9.24 14 9.31001 13.98 9.35001 13.93C9.40001 13.88 9.42 13.82 9.42 13.75V12.25C9.42 12.18 9.40001 12.12 9.35001 12.07C9.3 12.02 9.24 12 9.17 12Z" fill="#999999"/>
<path d="M5.35 11H3.82V0.25C3.82 0.18 3.8 0.12 3.75 0.07C3.7 0.02 3.64 0 3.57 0H2.04C1.97 0 1.91 0.02 1.86 0.07C1.81 0.12 1.79 0.18 1.79 0.25V11H0.26C0.14 11 0.06 11.05 0.02 11.16C-0.02 11.26 0 11.35 0.08 11.43L2.62 13.93C2.68 13.98 2.74 14 2.8 14C2.87 14 2.93 13.98 2.98 13.93L5.52 11.44C5.57 11.38 5.6 11.31 5.6 11.25C5.6 11.18 5.58 11.12 5.53 11.07C5.48 11.02 5.42 11 5.35 11Z" fill="#999999"/>
<path d="M10.69 8H7.13C7.06 8 7 8.02 6.95 8.07C6.9 8.12 6.88 8.18 6.88 8.25V9.75C6.88 9.82 6.9 9.88 6.95 9.93C7 9.98 7.06 10 7.13 10H10.69C10.76 10 10.83 9.98 10.87 9.93C10.92 9.88 10.94 9.82 10.94 9.75V8.25C10.94 8.18 10.92 8.12 10.87 8.07C10.83 8.02 10.77 8 10.69 8Z" fill="#999999"/>
<path d="M13.93 0.07C13.88 0.02 13.82 0 13.75 0H7.13C7.06 0 7 0.02 6.95 0.07C6.9 0.12 6.88 0.18 6.88 0.25V1.75C6.88 1.82 6.9 1.88 6.95 1.93C7 1.98 7.06 2 7.13 2H13.75C13.82 2 13.89 1.98 13.93 1.93C13.98 1.88 14 1.82 14 1.75V0.25C14 0.18 13.98 0.12 13.93 0.07Z" fill="#999999"/>
<path d="M12.22 4H7.13C7.06 4 7 4.02 6.95 4.07C6.9 4.12 6.88 4.18 6.88 4.25V5.75C6.88 5.82 6.9 5.88 6.95 5.93C7 5.98 7.06 6 7.13 6H12.22C12.29 6 12.36 5.98 12.4 5.93C12.45 5.88 12.47 5.82 12.47 5.75V4.25C12.47 4.18 12.45 4.12 12.4 4.07C12.35 4.02 12.29 4 12.22 4Z" fill="#999999"/>
</svg>
