<svg width="12" height="15" viewBox="0 0 12 15" fill="none" xmlns="http://www.w3.org/2000/svg">
<path d="M5.83568 3.4375L3.29568 0.1575C3.13568 -0.0525 2.77568 -0.0525 2.61568 0.1575L0.0856769 3.4375C-0.124323 3.7075 0.0756769 4.0975 0.425677 4.0975H1.69568V11.8875C1.69568 12.1175 1.88568 12.2975 2.11568 12.2975H3.80568C4.03568 12.2975 4.22568 12.1175 4.22568 11.8875V4.0875H5.49568C5.84568 4.0875 6.04568 3.7075 5.83568 3.4375Z" fill="#999999"/>
<path d="M11.5757 9.89751H10.2957V2.10751C10.2957 1.87751 10.1157 1.69751 9.87568 1.69751H8.18568C7.95568 1.69751 7.76568 1.87751 7.76568 2.10751V9.89751H6.49568C6.14568 9.89751 5.94568 10.2875 6.15568 10.5575L8.69568 13.8375C8.86568 14.0575 9.20568 14.0575 9.37568 13.8375L11.9157 10.5575C12.1157 10.2875 11.9257 9.89751 11.5757 9.89751Z" fill="#999999"/>
</svg>
